<svg width="30" height="31" fill="none" xmlns="http://www.w3.org/2000/svg"><g clip-path="url(#clip0_301_11695)"><path d="M14.99 16.36a6.75 6.75 0 100-13.5 6.75 6.75 0 000 13.5zM15 .5a9 9 0 014.56 16.761c5.532 1.665 9.687 6.327 10.433 12.117.07.55-.34 1.05-.915 1.117-.575.068-1.1-.322-1.17-.873-.81-6.285-6.254-11.017-12.855-11.017-6.638 0-12.152 4.741-12.96 11.017-.07.551-.596.941-1.17.873-.576-.067-.986-.567-.915-1.117.744-5.766 4.921-10.422 10.462-12.102A9 9 0 0115 .5z" fill="#222"/></g><defs><clipPath id="clip0_301_11695"><path fill="#fff" transform="translate(0 .5)" d="M0 0h30v30H0z"/></clipPath></defs></svg>