<svg width="20" height="21" fill="none" xmlns="http://www.w3.org/2000/svg"><g clip-path="url(#clip0_124_4422)"><path d="M9.993 11.073a4.5 4.5 0 100-9 4.5 4.5 0 000 9zM10 .5a6 6 0 013.04 11.174c3.688 1.11 6.458 4.218 6.955 8.078.047.367-.226.7-.61.745-.383.045-.733-.215-.78-.582-.54-4.19-4.169-7.345-8.57-7.345-4.425 0-8.1 3.161-8.64 7.345-.047.367-.397.627-.78.582-.384-.045-.657-.378-.61-.745.496-3.844 3.281-6.948 6.975-8.068A6 6 0 0110 .5z" fill="#fff"/></g><defs><clipPath id="clip0_124_4422"><path fill="#fff" transform="translate(0 .5)" d="M0 0h20v20H0z"/></clipPath></defs></svg>